<?xml version="1.0" encoding="UTF-8"?>
<svg id="Layer_4" data-name="Layer 4" xmlns="http://www.w3.org/2000/svg" viewBox="0 0 792 612">
  <defs>
    <style>
      .cls-1 {
        letter-spacing: -.02em;
      }

      .cls-2 {
        letter-spacing: .02em;
      }

      .cls-3 {
        letter-spacing: 0em;
      }

      .cls-4 {
        letter-spacing: 0em;
      }

      .cls-5 {
        letter-spacing: .03em;
      }

      .cls-6, .cls-7 {
        fill: #a5976d;
      }

      .cls-8 {
        letter-spacing: 0em;
      }

      .cls-9 {
        letter-spacing: 0em;
      }

      .cls-10 {
        font-family: ClassicoURW-Med, 'Classico URW';
        font-size: 55.32px;
      }

      .cls-11 {
        letter-spacing: 0em;
      }

      .cls-12 {
        letter-spacing: 0em;
      }

      .cls-13 {
        letter-spacing: 0em;
      }

      .cls-14 {
        letter-spacing: 0em;
      }

      .cls-15 {
        letter-spacing: .01em;
      }

      .cls-16 {
        letter-spacing: 0em;
      }

      .cls-17 {
        font-family: ClassicoURW-Reg, 'Classico URW';
        font-size: 40.14px;
      }

      .cls-18 {
        fill: #344e58;
      }

      .cls-18, .cls-7, .cls-19 {
        stroke-width: 0px;
      }

      .cls-19 {
        fill: #9da7aa;
      }
    </style>
  </defs>
  <path class="cls-19" d="M349.9,193.68l-13.3-12.39-2.68-2.49c-5.01-4.67-3.59-12.95,2.69-15.68h0s0,0,0,0c6.28-2.73,13.31,1.88,13.3,8.73v3.66s-.02,18.17-.02,18.17Z"/>
  <path class="cls-19" d="M377.8,181.37h3.18v158.88c0,.88-.71,1.59-1.59,1.59h0c-.88,0-1.59-.71-1.59-1.59v-158.88h0Z" transform="translate(-72.84 172.92) rotate(-23.49)"/>
  <path class="cls-18" d="M391.77,286.09l-17.6-40.44c9.03-7.22,14.99-14.15,14.99-25.74,0-16.42-14.16-26.59-27.29-26.59-10.3,0-17.62,4.75-23.68,9.21-.72.53-1.32,1.2-1.77,1.98-4.22,7.32-8.22,14.94-11.9,22.66-3.73,7.83-3.52,8.39-2.74,8.85l.36.17.31-.08c.7-.19,1.31-1.14,4.08-5.95,2.41-4.17,5.8-10.02,9.81-15.68,1.75.12,5.23-1.25,7.44-3.81,2.49-2.88,2.45-6.22,4.94-9.68.04-.05.11-.15.2-.26,3.43-2.56,7.01-4.17,10.63-4.17.24,0,.49,0,.73.02,3.97.24,11.4,2.7,14.41,8.27.74,1.36,1.1,2.94,1.1,4.82,0,7.65-5.2,14.24-18.54,23.53-17.51,12.2-24.83,19.32-24.83,31.81,0,8.8,3.77,16.88,10.6,22.76,6.23,5.35,14.44,8.43,22.53,8.43s16.87-3.09,24.39-8.71"/>
  <path class="cls-19" d="M442.1,193.68l13.3-12.39,2.68-2.49c5.01-4.67,3.59-12.95-2.69-15.68h0s0,0,0,0c-6.28-2.73-13.31,1.88-13.3,8.73v3.66s.02,18.17.02,18.17Z"/>
  <path class="cls-19" d="M412.61,181.37h0c.88,0,1.59.71,1.59,1.59v158.88h-3.18v-158.88c0-.88.71-1.59,1.59-1.59Z" transform="translate(686.73 666.01) rotate(-156.51)"/>
  <path class="cls-18" d="M402.04,287.5c7.52,5.61,16.18,8.71,24.39,8.71s16.3-3.07,22.53-8.43c6.84-5.88,10.6-13.96,10.6-22.76,0-12.49-7.32-19.61-24.83-31.81-13.34-9.29-18.54-15.88-18.54-23.53,0-1.88.36-3.46,1.1-4.82,3.01-5.57,10.43-8.02,14.41-8.27,3.87-.23,7.72,1.43,11.39,4.18.07.1.13.18.17.22,2.49,3.46,2.46,6.8,4.94,9.68,2.2,2.55,5.67,3.92,7.43,3.81,4.02,5.65,7.41,11.51,9.83,15.68,2.78,4.81,3.38,5.77,4.08,5.95l.39.07.27-.16c.78-.45.99-1.02-2.74-8.85-3.68-7.73-7.69-15.35-11.9-22.66-.45-.78-1.05-1.45-1.77-1.98-6.06-4.45-13.38-9.21-23.68-9.21-13.12,0-27.29,10.17-27.29,26.59,0,11.74,5.87,18.51,15.07,25.81-5.41,12.45-12.31,28.02-17.72,40.47"/>
  <g>
    <path class="cls-18" d="M381.24,333.19h-6.57v-30.83h0s-10.4-19.37-10.4-19.37l-2.7,1.45,10.04,18.69v30.06h-2.63v-30.66h0l-10.4-19.54-2.7,1.44,10.04,18.87v29.89h-12.71c-.59,0-1.07.48-1.07,1.07s.48,1.07,1.07,1.07h28.03c.59,0,1.07-.48,1.07-1.07s-.48-1.07-1.07-1.07Z"/>
    <path class="cls-18" d="M438.8,333.19h-12.72v-30.06l10.04-18.69-2.7-1.45-10.4,19.37h0s0,0,0,0v30.83h-2.63v-30.06l10.04-18.69-2.69-1.45-10.4,19.37h0s0,0,0,0v30.83h-6.62c-.59,0-1.07.48-1.07,1.07s.48,1.07,1.07,1.07h28.09c.59,0,1.07-.48,1.07-1.07s-.48-1.07-1.07-1.07Z"/>
  </g>
  <path class="cls-7" d="M395.98,229.37l7.01,16.1,1.41,3.24c2.64,6.07-1.8,12.86-8.43,12.86h0c-6.62,0-11.07-6.79-8.43-12.86l1.41-3.24,7.01-16.1Z"/>
  <text class="cls-6" transform="translate(216 394.91) scale(1.07 1)"><tspan class="cls-10"><tspan x="0" y="0">A</tspan><tspan class="cls-8" x="36.4" y="0">N</tspan><tspan x="77.62" y="0">G</tspan><tspan class="cls-4" x="120.33" y="0">O</tspan><tspan class="cls-15" x="166.47" y="0">S</tspan><tspan class="cls-11" x="196.01" y="0">T</tspan><tspan class="cls-14" x="224.5" y="0">U</tspan><tspan class="cls-5" x="265.66" y="0">R</tspan><tspan x="300.74" y="0">A</tspan></tspan><tspan class="cls-17"><tspan x="37.43" y="42.21">a</tspan><tspan class="cls-16" x="57.13" y="42.21">r</tspan><tspan x="69.82" y="42.21">om</tspan><tspan class="cls-12" x="125.68" y="42.21">a</tspan><tspan class="cls-9" x="145.07" y="42.21">t</tspan><tspan class="cls-13" x="157.03" y="42.21">ic bi</tspan><tspan class="cls-2" x="226.74" y="42.21">t</tspan><tspan class="cls-1" x="239.35" y="42.21">t</tspan><tspan class="cls-13" x="250.26" y="42.21">e</tspan><tspan class="cls-3" x="271.05" y="42.21">r</tspan><tspan x="284.46" y="42.21">s</tspan></tspan></text>
</svg>