<?xml version="1.0" encoding="utf-8"?>
<!-- Generator: Adobe Illustrator 28.2.0, SVG Export Plug-In . SVG Version: 6.00 Build 0)  -->
<svg version="1.1" id="Layer_1" xmlns="http://www.w3.org/2000/svg" xmlns:xlink="http://www.w3.org/1999/xlink" x="0px" y="0px"
	 viewBox="0 0 440 220" style="enable-background:new 0 0 440 220;" xml:space="preserve">
<style type="text/css">
	.st0{fill:#414042;}
	.st1{fill:#7F9489;}
</style>
<g>
	<path class="st0" d="M420.97,161.07L304.88,25.85c-6.79-7.91-16.65-12.44-27.07-12.44s-20.29,4.53-27.07,12.44L134.69,161.01
		c-7.65,8.92-9.36,21.09-4.45,31.76c4.9,10.67,15.25,17.3,26.99,17.3h6.56c8.67,0,16.89-3.78,22.54-10.36l16.77-19.53
		c4.23-4.93,10.38-7.76,16.89-7.76c6.5,0,12.66,2.83,16.9,7.76l16.76,19.53c5.65,6.58,13.86,10.35,22.66,10.35c0.01,0,0.01,0,0.02,0
		c4.54-0.36,8.89-1.51,12.93-3.45c7.46-3.56,12.14-8.92,14.82-12.9c3.57-6.18,5.69-12.76,6.32-19.55
		c2.1-22.62-13.22-38.71-17.97-43.1c-14.73-13.65-33.04-15.24-43.76-14.71c11.71-5.8,26.81-10.21,42.05-6.09
		c19.22,5.19,31.36,22.23,43.11,38.73c7.16,10.07,12.19,18.99,16.62,26.86c8.56,15.21,14.75,26.2,29.07,31.54
		c4.92,1.84,10.21,2.76,15.78,2.76c1.04,0,2.11-0.03,3.17-0.1c12.23-0.76,26.92-10.67,29.32-25.36
		C429.62,173.56,423.63,164.47,420.97,161.07z"/>
	<path class="st1" d="M185.9,20.78l-0.78-0.91c-5.48-6.38-13.44-10.04-21.85-10.04c0,0,0,0-0.01,0c-8.4,0-16.36,3.66-21.84,10.04
		L18.86,162.62c-7.42,8.64-9.07,20.44-4.32,30.78c4.76,10.35,14.78,16.78,26.17,16.78c8.34,0,16.26-3.61,21.73-9.9L185.79,58.43
		C195.09,47.73,195.14,31.54,185.9,20.78z"/>
</g>
</svg>
